<?xml version="1.0" standalone="no"?><!DOCTYPE svg PUBLIC "-//W3C//DTD SVG 1.1//EN" "http://www.w3.org/Graphics/SVG/1.1/DTD/svg11.dtd"><svg class="_3y _2a block" height="24" width="24" viewBox="0 0 16 16" aria-label="" role="img" data-reactid="36" version="1.1" xmlns="http://www.w3.org/2000/svg" xmlns:xlink="http://www.w3.org/1999/xlink" style="border-bottom-color:rgb(181, 181, 181);border-left-color:rgb(181, 181, 181);border-right-color:rgb(181, 181, 181);border-top-color:rgb(181, 181, 181);color:rgb(181, 181, 181);display:block;font-weight:bold;height:24px;outline-color:rgb(181, 181, 181);text-decoration:none solid rgb(181, 181, 181);text-decoration-color:rgb(181, 181, 181);vertical-align:middle;width:24px;column-rule-color:rgb(181, 181, 181);perspective-origin:12px 12px;-webkit-text-emphasis-color:rgb(181, 181, 181);-webkit-text-fill-color:rgb(181, 181, 181);-webkit-text-stroke-color:rgb(181, 181, 181);transform-origin:12px 12px;fill:rgb(181, 181, 181);caret-color:rgb(181, 181, 181);"><title data-reactid="37" style="border-bottom-color:rgb(181, 181, 181);border-left-color:rgb(181, 181, 181);border-right-color:rgb(181, 181, 181);border-top-color:rgb(181, 181, 181);color:rgb(181, 181, 181);font-weight:bold;height:auto;outline-color:rgb(181, 181, 181);overflow-x:visible;overflow-y:visible;text-decoration:none solid rgb(181, 181, 181);text-decoration-color:rgb(181, 181, 181);width:auto;column-rule-color:rgb(181, 181, 181);perspective-origin:50% 50%;-webkit-text-emphasis-color:rgb(181, 181, 181);-webkit-text-fill-color:rgb(181, 181, 181);-webkit-text-stroke-color:rgb(181, 181, 181);transform-origin:0px 0px;fill:rgb(181, 181, 181);caret-color:rgb(181, 181, 181);"/><path d="M1.073 4a7.999 7.999 0 1 1 13.854 8A7.999 7.999 0 0 1 1.073 4zm4.762 2.758c-.178.324-.22.54-.302.92-.09.407-1.062 5.768-1.096 5.952-.026.134.018.265.123.326h.002v.001c.105.06.24.033.344-.056.142-.122 4.299-3.645 4.607-3.925.288-.262.453-.406.644-.722l.007-.012c.18-.325.22-.54.303-.92.09-.407 1.062-5.768 1.096-5.952.026-.134-.018-.265-.123-.326h-.002v-.001c-.105-.06-.24-.033-.344.056-.142.122-4.299 3.645-4.607 3.925-.288.262-.453.406-.644.722l-.008.012zm1.732.992a.5.5 0 1 1 .866.5.5.5 0 0 1-.866-.5z" data-reactid="38" style="border-bottom-color:rgb(181, 181, 181);border-left-color:rgb(181, 181, 181);border-right-color:rgb(181, 181, 181);border-top-color:rgb(181, 181, 181);color:rgb(181, 181, 181);font-weight:bold;height:auto;outline-color:rgb(181, 181, 181);overflow-x:visible;overflow-y:visible;text-decoration:none solid rgb(181, 181, 181);text-decoration-color:rgb(181, 181, 181);width:auto;column-rule-color:rgb(181, 181, 181);perspective-origin:0px 0px;-webkit-text-emphasis-color:rgb(181, 181, 181);-webkit-text-fill-color:rgb(181, 181, 181);-webkit-text-stroke-color:rgb(181, 181, 181);transform-origin:0px 0px;fill:rgb(181, 181, 181);d:path('M 1.073 4 a 7.999 7.999 0 1 1 13.854 8 A 7.999 7.999 0 0 1 1.073 4 Z m 4.762 2.758 c -0.178 0.324 -0.22 0.54 -0.302 0.92 c -0.09 0.407 -1.062 5.768 -1.096 5.952 c -0.026 0.134 0.018 0.265 0.123 0.326 h 0.002 v 0.001 c 0.105 0.06 0.24 0.033 0.344 -0.056 c 0.142 -0.122 4.299 -3.645 4.607 -3.925 c 0.288 -0.262 0.453 -0.406 0.644 -0.722 l 0.007 -0.012 c 0.18 -0.325 0.22 -0.54 0.303 -0.92 c 0.09 -0.407 1.062 -5.768 1.096 -5.952 c 0.026 -0.134 -0.018 -0.265 -0.123 -0.326 h -0.002 v -0.001 c -0.105 -0.06 -0.24 -0.033 -0.344 0.056 c -0.142 0.122 -4.299 3.645 -4.607 3.925 c -0.288 0.262 -0.453 0.406 -0.644 0.722 l -0.008 0.012 Z m 1.732 0.992 a 0.5 0.5 0 1 1 0.866 0.5 a 0.5 0.5 0 0 1 -0.866 -0.5 Z');caret-color:rgb(181, 181, 181);"/></svg>