<?xml version="1.0" standalone="no"?><!DOCTYPE svg PUBLIC "-//W3C//DTD SVG 1.1//EN" "http://www.w3.org/Graphics/SVG/1.1/DTD/svg11.dtd"><svg class="_3y _24 block" height="28" width="28" viewBox="0 0 16 16" aria-label="Home" role="img" version="1.1" xmlns="http://www.w3.org/2000/svg" xmlns:xlink="http://www.w3.org/1999/xlink" style="border-bottom-color:rgb(189, 8, 28);border-left-color:rgb(189, 8, 28);border-right-color:rgb(189, 8, 28);border-top-color:rgb(189, 8, 28);color:rgb(189, 8, 28);cursor:pointer;display:block;font-weight:bold;height:28px;min-height:auto;min-width:auto;outline-color:rgb(189, 8, 28);text-decoration:none solid rgb(189, 8, 28);text-decoration-color:rgb(189, 8, 28);text-shadow:rgb(255, 255, 255) 0px 1px 0px;vertical-align:middle;white-space:nowrap;width:28px;column-rule-color:rgb(189, 8, 28);perspective-origin:14px 14px;-webkit-text-emphasis-color:rgb(189, 8, 28);-webkit-text-fill-color:rgb(189, 8, 28);-webkit-text-stroke-color:rgb(189, 8, 28);transform-origin:14px 14px;fill:rgb(189, 8, 28);caret-color:rgb(189, 8, 28);"><title style="border-bottom-color:rgb(189, 8, 28);border-left-color:rgb(189, 8, 28);border-right-color:rgb(189, 8, 28);border-top-color:rgb(189, 8, 28);color:rgb(189, 8, 28);cursor:pointer;font-weight:bold;height:auto;outline-color:rgb(189, 8, 28);overflow-x:visible;overflow-y:visible;text-decoration:none solid rgb(189, 8, 28);text-decoration-color:rgb(189, 8, 28);text-shadow:rgb(255, 255, 255) 0px 1px 0px;white-space:nowrap;width:auto;column-rule-color:rgb(189, 8, 28);perspective-origin:50% 50%;-webkit-text-emphasis-color:rgb(189, 8, 28);-webkit-text-fill-color:rgb(189, 8, 28);-webkit-text-stroke-color:rgb(189, 8, 28);transform-origin:0px 0px;fill:rgb(189, 8, 28);caret-color:rgb(189, 8, 28);">Home</title><path d="M5.644 15.648C6.39 15.877 7.18 16 8 16a8 8 0 1 0-2.847-.521c-.073-.625-.151-1.655.017-2.378.145-.621.934-3.958.934-3.958s-.238-.477-.238-1.183c0-1.107.642-1.934 1.44-1.934.68 0 1.008.51 1.008 1.122 0 .683-.435 1.705-.66 2.652-.187.792.398 1.439 1.18 1.439 1.416 0 2.504-1.493 2.504-3.647 0-1.907-1.37-3.24-3.327-3.24-2.266 0-3.596 1.7-3.596 3.456 0 .684.264 1.418.593 1.817a.238.238 0 0 1 .055.229c-.06.252-.195.792-.221.903-.035.146-.116.177-.267.107C3.581 10.4 2.96 8.946 2.96 7.778c0-2.512 1.825-4.82 5.262-4.82 2.763 0 4.91 1.97 4.91 4.6 0 2.745-1.73 4.954-4.133 4.954-.807 0-1.566-.42-1.825-.914 0 0-.4 1.52-.496 1.893-.188.722-.71 1.637-1.033 2.157z" style="border-bottom-color:rgb(189, 8, 28);border-left-color:rgb(189, 8, 28);border-right-color:rgb(189, 8, 28);border-top-color:rgb(189, 8, 28);color:rgb(189, 8, 28);cursor:pointer;font-weight:bold;height:auto;outline-color:rgb(189, 8, 28);overflow-x:visible;overflow-y:visible;text-decoration:none solid rgb(189, 8, 28);text-decoration-color:rgb(189, 8, 28);text-shadow:rgb(255, 255, 255) 0px 1px 0px;white-space:nowrap;width:auto;column-rule-color:rgb(189, 8, 28);perspective-origin:0px 0px;-webkit-text-emphasis-color:rgb(189, 8, 28);-webkit-text-fill-color:rgb(189, 8, 28);-webkit-text-stroke-color:rgb(189, 8, 28);transform-origin:0px 0px;fill:rgb(189, 8, 28);d:path('M 5.644 15.648 C 6.39 15.877 7.18 16 8 16 a 8 8 0 1 0 -2.847 -0.521 c -0.073 -0.625 -0.151 -1.655 0.017 -2.378 c 0.145 -0.621 0.934 -3.958 0.934 -3.958 s -0.238 -0.477 -0.238 -1.183 c 0 -1.107 0.642 -1.934 1.44 -1.934 c 0.68 0 1.008 0.51 1.008 1.122 c 0 0.683 -0.435 1.705 -0.66 2.652 c -0.187 0.792 0.398 1.439 1.18 1.439 c 1.416 0 2.504 -1.493 2.504 -3.647 c 0 -1.907 -1.37 -3.24 -3.327 -3.24 c -2.266 0 -3.596 1.7 -3.596 3.456 c 0 0.684 0.264 1.418 0.593 1.817 a 0.238 0.238 0 0 1 0.055 0.229 c -0.06 0.252 -0.195 0.792 -0.221 0.903 c -0.035 0.146 -0.116 0.177 -0.267 0.107 C 3.581 10.4 2.96 8.946 2.96 7.778 c 0 -2.512 1.825 -4.82 5.262 -4.82 c 2.763 0 4.91 1.97 4.91 4.6 c 0 2.745 -1.73 4.954 -4.133 4.954 c -0.807 0 -1.566 -0.42 -1.825 -0.914 c 0 0 -0.4 1.52 -0.496 1.893 c -0.188 0.722 -0.71 1.637 -1.033 2.157 Z');caret-color:rgb(189, 8, 28);"/></svg>