<?xml version="1.0" standalone="no"?><!DOCTYPE svg PUBLIC "-//W3C//DTD SVG 1.1//EN" "http://www.w3.org/Graphics/SVG/1.1/DTD/svg11.dtd"><svg class="_3y _2a block" height="24" width="24" viewBox="0 0 16 16" aria-label="" role="img" data-reactid="53" version="1.1" xmlns="http://www.w3.org/2000/svg" xmlns:xlink="http://www.w3.org/1999/xlink" style="border-bottom-color:rgb(181, 181, 181);border-left-color:rgb(181, 181, 181);border-right-color:rgb(181, 181, 181);border-top-color:rgb(181, 181, 181);color:rgb(181, 181, 181);cursor:pointer;display:block;height:24px;outline-color:rgb(181, 181, 181);text-align:center;text-decoration:none solid rgb(181, 181, 181);text-decoration-color:rgb(181, 181, 181);vertical-align:middle;width:24px;column-rule-color:rgb(181, 181, 181);perspective-origin:12px 12px;-webkit-text-emphasis-color:rgb(181, 181, 181);-webkit-text-fill-color:rgb(181, 181, 181);-webkit-text-stroke-color:rgb(181, 181, 181);transform-origin:12px 12px;fill:rgb(181, 181, 181);caret-color:rgb(181, 181, 181);"><title data-reactid="54" style="border-bottom-color:rgb(181, 181, 181);border-left-color:rgb(181, 181, 181);border-right-color:rgb(181, 181, 181);border-top-color:rgb(181, 181, 181);color:rgb(181, 181, 181);cursor:pointer;height:auto;outline-color:rgb(181, 181, 181);overflow-x:visible;overflow-y:visible;text-align:center;text-decoration:none solid rgb(181, 181, 181);text-decoration-color:rgb(181, 181, 181);width:auto;column-rule-color:rgb(181, 181, 181);perspective-origin:50% 50%;-webkit-text-emphasis-color:rgb(181, 181, 181);-webkit-text-fill-color:rgb(181, 181, 181);-webkit-text-stroke-color:rgb(181, 181, 181);transform-origin:0px 0px;fill:rgb(181, 181, 181);caret-color:rgb(181, 181, 181);"/><path d="M11.8 8.586c-.6 0-1-.4-1-.999s.5-.998 1-.998 1 .4 1 .998c0 .6-.5.999-1 .999m-3.8 0c-.6 0-1-.4-1-.999s.5-.998 1-.998 1 .4 1 .998c0 .6-.4.999-1 .999m-3.8 0c-.6 0-1-.4-1-.999s.5-.998 1-.998 1 .4 1 .998c0 .6-.4.999-1 .999M8 0C3.9 0 .5 3.295.5 7.388c0 1.797.6 3.494 1.8 4.792l-.9 3.494c-.1.2.2.4.4.3l3.5-1.698c.9.3 1.8.5 2.7.5 4.1 0 7.5-3.295 7.5-7.388S12.1 0 8 0" data-reactid="55" style="border-bottom-color:rgb(181, 181, 181);border-left-color:rgb(181, 181, 181);border-right-color:rgb(181, 181, 181);border-top-color:rgb(181, 181, 181);color:rgb(181, 181, 181);cursor:pointer;height:auto;outline-color:rgb(181, 181, 181);overflow-x:visible;overflow-y:visible;text-align:center;text-decoration:none solid rgb(181, 181, 181);text-decoration-color:rgb(181, 181, 181);width:auto;column-rule-color:rgb(181, 181, 181);perspective-origin:0px 0px;-webkit-text-emphasis-color:rgb(181, 181, 181);-webkit-text-fill-color:rgb(181, 181, 181);-webkit-text-stroke-color:rgb(181, 181, 181);transform-origin:0px 0px;fill:rgb(181, 181, 181);d:path('M 11.8 8.586 c -0.6 0 -1 -0.4 -1 -0.999 s 0.5 -0.998 1 -0.998 s 1 0.4 1 0.998 c 0 0.6 -0.5 0.999 -1 0.999 m -3.8 0 c -0.6 0 -1 -0.4 -1 -0.999 s 0.5 -0.998 1 -0.998 s 1 0.4 1 0.998 c 0 0.6 -0.4 0.999 -1 0.999 m -3.8 0 c -0.6 0 -1 -0.4 -1 -0.999 s 0.5 -0.998 1 -0.998 s 1 0.4 1 0.998 c 0 0.6 -0.4 0.999 -1 0.999 M 8 0 C 3.9 0 0.5 3.295 0.5 7.388 c 0 1.797 0.6 3.494 1.8 4.792 l -0.9 3.494 c -0.1 0.2 0.2 0.4 0.4 0.3 l 3.5 -1.698 c 0.9 0.3 1.8 0.5 2.7 0.5 c 4.1 0 7.5 -3.295 7.5 -7.388 S 12.1 0 8 0');caret-color:rgb(181, 181, 181);"/></svg>